<svg width="21" height="21" viewBox="0 0 21 21" fill="none" xmlns="http://www.w3.org/2000/svg">
<path d="M20.25 7.5C20.25 7.10217 20.0919 6.72065 19.8106 6.43934C19.5294 6.15804 19.1478 6 18.75 6H15.75L13.5 3H7.5L5.25 6H2.25C1.85217 6 1.47064 6.15804 1.18934 6.43934C0.908035 6.72065 0.75 7.10217 0.75 7.5V16.5C0.75 16.8978 0.908035 17.2794 1.18934 17.5606C1.47064 17.8419 1.85217 18 2.25 18H18.75C19.1478 18 19.5294 17.8419 19.8106 17.5606C20.0919 17.2794 20.25 16.8978 20.25 16.5V7.5Z" stroke="white" stroke-linecap="round" stroke-linejoin="round"/>
<path d="M10.5 14.625C12.364 14.625 13.875 13.114 13.875 11.25C13.875 9.38604 12.364 7.875 10.5 7.875C8.63604 7.875 7.125 9.38604 7.125 11.25C7.125 13.114 8.63604 14.625 10.5 14.625Z" stroke="white" stroke-linecap="round" stroke-linejoin="round"/>
</svg>